{
	"asset":{
		"version":"2.0",
		"generator":"Created using the official Cinema 4D glTF Exporter 1.000x290161"
	},
	"scenes":[{
		"nodes":[0,
		1]
	}],
	"nodes":[{
		"name":"Camera",
		"translation":[217.95114135742188,
		158.026611328125,
		169.51239013671876],
		"rotation":[0.16520626842975617,
		-0.43727290630340578,
		-0.08207190781831742,
		-0.8802065253257752],
		"scale":[1.0,
		1.0,
		1.0],
		"camera":0
	},
	{
		"name":"intermittore_Sferoconico.obj",
		"children":[2,
		3,
		4,
		5,
		6,
		7,
		8,
		9,
		10,
		11]
	},
	{
		"name":"binario",
		"mesh":0
	},
	{
		"name":"camma",
		"mesh":1
	},
	{
		"name":"9",
		"mesh":2
	},
	{
		"name":"Polygon",
		"mesh":3
	},
	{
		"name":"11",
		"mesh":4
	},
	{
		"name":"10",
		"mesh":5
	},
	{
		"name":"8",
		"mesh":6
	},
	{
		"name":"6",
		"mesh":7
	},
	{
		"name":"5",
		"mesh":8
	},
	{
		"name":"7",
		"mesh":9
	}],
	"meshes":[{
		"primitives":[{
			"attributes":{
				"POSITION":1,
				"NORMAL":2,
				"TEXCOORD_0":3
			},
			"indices":0,
			"material":0
		}]
	},
	{
		"primitives":[{
			"attributes":{
				"POSITION":5,
				"NORMAL":6,
				"TEXCOORD_0":7
			},
			"indices":4,
			"material":0
		}]
	},
	{
		"primitives":[{
			"attributes":{
				"POSITION":9,
				"NORMAL":10,
				"TEXCOORD_0":11
			},
			"indices":8,
			"material":0
		}]
	},
	{
		"primitives":[{
			"attributes":{
				"POSITION":13,
				"NORMAL":14,
				"TEXCOORD_0":15
			},
			"indices":12,
			"material":0
		}]
	},
	{
		"primitives":[{
			"attributes":{
				"POSITION":17,
				"NORMAL":18,
				"TEXCOORD_0":19
			},
			"indices":16,
			"material":0
		}]
	},
	{
		"primitives":[{
			"attributes":{
				"POSITION":21,
				"NORMAL":22,
				"TEXCOORD_0":23
			},
			"indices":20,
			"material":0
		}]
	},
	{
		"primitives":[{
			"attributes":{
				"POSITION":25,
				"NORMAL":26,
				"TEXCOORD_0":27
			},
			"indices":24,
			"material":0
		}]
	},
	{
		"primitives":[{
			"attributes":{
				"POSITION":29,
				"NORMAL":30,
				"TEXCOORD_0":31
			},
			"indices":28,
			"material":0
		}]
	},
	{
		"primitives":[{
			"attributes":{
				"POSITION":33,
				"NORMAL":34,
				"TEXCOORD_0":35
			},
			"indices":32,
			"material":0
		}]
	},
	{
		"primitives":[{
			"attributes":{
				"POSITION":37,
				"NORMAL":38,
				"TEXCOORD_0":39
			},
			"indices":36,
			"material":0
		}]
	}],
	"cameras":[{
		"type":"perspective",
		"perspective":{
			"znear":0.009999999776482582,
			"zfar":10000000000.0,
			"aspectRatio":1.7777777910232545,
			"yfov":0.5483348965644836
		}
	}],
	"buffers":[{
		"uri":"data:application/octet-stream;base64,",
		"byteLength":250888
	},
	{
		"uri":"data:application/octet-stream;base64,",
		"byteLength":184504
	},
	{
		"uri":"data:application/octet-stream;base64,",
		"byteLength":108976
	},
	{
		"uri":"data:application/octet-stream;base64,",
		"byteLength":111600
	},
	{
		"uri":"data:application/octet-stream;base64,",
		"byteLength":108976
	},
	{
		"uri":"data:application/octet-stream;base64,",
		"byteLength":111600
	},
	{
		"uri":"data:application/octet-stream;base64,",
		"byteLength":111600
	},
	{
		"uri":"data:application/octet-stream;base64,",
		"byteLength":108976
	},
	{
		"uri":"data:application/octet-stream;base64,",
		"byteLength":111600
	},
	{
		"uri":"data:application/octet-stream;base64,",
		"byteLength":108976
	}],
	"accessors":[{
		"byteOffset":0,
		"type":"SCALAR",
		"bufferView":0,
		"componentType":5123,
		"count":33108,
		"min":[0],
		"max":[5770]
	},
	{
		"byteOffset":0,
		"type":"VEC3",
		"bufferView":1,
		"componentType":5126,
		"count":5771,
		"min":[-31.7726993560791,
		34.61029815673828,
		-16.372699737548829],
		"max":[64.56590270996094,
		79.60050201416016,
		87.61519622802735]
	},
	{
		"byteOffset":12,
		"type":"VEC3",
		"bufferView":1,
		"componentType":5126,
		"count":5771,
		"min":[-1.0,
		-1.0,
		-1.0],
		"max":[1.0,
		1.0,
		1.0]
	},
	{
		"byteOffset":24,
		"type":"VEC2",
		"bufferView":1,
		"componentType":5126,
		"count":5771,
		"min":[0.0,
		0.0],
		"max":[1.0,
		1.0]
	},
	{
		"byteOffset":0,
		"type":"SCALAR",
		"bufferView":2,
		"componentType":5123,
		"count":17052,
		"min":[0],
		"max":[4699]
	},
	{
		"byteOffset":0,
		"type":"VEC3",
		"bufferView":3,
		"componentType":5126,
		"count":4700,
		"min":[-6.327300071716309,
		8.207900047302246,
		-82.783203125],
		"max":[47.89690017700195,
		102.00389862060547,
		10.728500366210938]
	},
	{
		"byteOffset":12,
		"type":"VEC3",
		"bufferView":3,
		"componentType":5126,
		"count":4700,
		"min":[-0.9998437762260437,
		-0.9991875290870667,
		-0.9991875290870667],
		"max":[0.9998437762260437,
		0.9998750686645508,
		0.9998750686645508]
	},
	{
		"byteOffset":24,
		"type":"VEC2",
		"bufferView":3,
		"componentType":5126,
		"count":4700,
		"min":[0.0,
		0.28509998321533205],
		"max":[1.0,
		1.0]
	},
	{
		"byteOffset":0,
		"type":"SCALAR",
		"bufferView":4,
		"componentType":5123,
		"count":12600,
		"min":[0],
		"max":[2617]
	},
	{
		"byteOffset":0,
		"type":"VEC3",
		"bufferView":5,
		"componentType":5126,
		"count":2618,
		"min":[-0.8330000042915344,
		75.8270034790039,
		-27.0718994140625],
		"max":[14.293299674987793,
		97.6177978515625,
		-3.7909998893737795]
	},
	{
		"byteOffset":12,
		"type":"VEC3",
		"bufferView":5,
		"componentType":5126,
		"count":2618,
		"min":[-0.9987500309944153,
		-0.9950000643730164,
		-0.9980625510215759],
		"max":[0.9986875653266907,
		0.9977812767028809,
		0.9980000257492065]
	},
	{
		"byteOffset":24,
		"type":"VEC2",
		"bufferView":5,
		"componentType":5126,
		"count":2618,
		"min":[0.0,
		0.7821999788284302],
		"max":[0.3294999599456787,
		1.0]
	},
	{
		"byteOffset":0,
		"type":"SCALAR",
		"bufferView":6,
		"componentType":5123,
		"count":12600,
		"min":[0],
		"max":[2699]
	},
	{
		"byteOffset":0,
		"type":"VEC3",
		"bufferView":7,
		"componentType":5126,
		"count":2700,
		"min":[19.177200317382814,
		82.73660278320313,
		-31.093599319458009],
		"max":[34.64630126953125,
		103.48269653320313,
		-7.380000114440918]
	},
	{
		"byteOffset":12,
		"type":"VEC3",
		"bufferView":7,
		"componentType":5126,
		"count":2700,
		"min":[-0.9965937733650208,
		-0.9991875290870667,
		-0.9998750686645508],
		"max":[0.9965937733650208,
		0.9991875290870667,
		0.9998750686645508]
	},
	{
		"byteOffset":24,
		"type":"VEC2",
		"bufferView":7,
		"componentType":5126,
		"count":2700,
		"min":[0.0,
		0.7820999622344971],
		"max":[0.3941999673843384,
		1.0]
	},
	{
		"byteOffset":0,
		"type":"SCALAR",
		"bufferView":8,
		"componentType":5123,
		"count":12600,
		"min":[0],
		"max":[2617]
	},
	{
		"byteOffset":0,
		"type":"VEC3",
		"bufferView":9,
		"componentType":5126,
		"count":2618,
		"min":[25.479000091552736,
		66.16680145263672,
		-13.664999961853028],
		"max":[42.03450012207031,
		89.27410125732422,
		7.801199913024902]
	},
	{
		"byteOffset":12,
		"type":"VEC3",
		"bufferView":9,
		"componentType":5126,
		"count":2618,
		"min":[-0.9986875653266907,
		-0.9980625510215759,
		-0.9950000643730164],
		"max":[0.9987500309944153,
		0.9980000257492065,
		0.9977812767028809]
	},
	{
		"byteOffset":24,
		"type":"VEC2",
		"bufferView":9,
		"componentType":5126,
		"count":2618,
		"min":[0.0,
		0.7821999788284302],
		"max":[0.281499981880188,
		1.0]
	},
	{
		"byteOffset":0,
		"type":"SCALAR",
		"bufferView":10,
		"componentType":5123,
		"count":12600,
		"min":[0],
		"max":[2699]
	},
	{
		"byteOffset":0,
		"type":"VEC3",
		"bufferView":11,
		"componentType":5126,
		"count":2700,
		"min":[5.936200141906738,
		59.450599670410159,
		-9.524700164794922],
		"max":[20.482799530029298,
		83.27529907226563,
		11.307499885559082]
	},
	{
		"byteOffset":12,
		"type":"VEC3",
		"bufferView":11,
		"componentType":5126,
		"count":2700,
		"min":[-0.9965937733650208,
		-0.9998750686645508,
		-0.9991875290870667],
		"max":[0.9965937733650208,
		0.9998750686645508,
		0.9991875290870667]
	},
	{
		"byteOffset":24,
		"type":"VEC2",
		"bufferView":11,
		"componentType":5126,
		"count":2700,
		"min":[0.0,
		0.7822999954223633],
		"max":[0.26080000400543215,
		1.0]
	},
	{
		"byteOffset":0,
		"type":"SCALAR",
		"bufferView":12,
		"componentType":5123,
		"count":12600,
		"min":[0],
		"max":[2699]
	},
	{
		"byteOffset":0,
		"type":"VEC3",
		"bufferView":13,
		"componentType":5126,
		"count":2700,
		"min":[20.14579963684082,
		50.30059814453125,
		-15.068699836730957],
		"max":[35.44110107421875,
		74.12529754638672,
		5.502799987792969]
	},
	{
		"byteOffset":12,
		"type":"VEC3",
		"bufferView":13,
		"componentType":5126,
		"count":2700,
		"min":[-0.9965937733650208,
		-0.9998750686645508,
		-0.9991875290870667],
		"max":[0.9965937733650208,
		0.9998750686645508,
		0.9991875290870667]
	},
	{
		"byteOffset":24,
		"type":"VEC2",
		"bufferView":13,
		"componentType":5126,
		"count":2700,
		"min":[0.0,
		0.8357999324798584],
		"max":[0.1965000033378601,
		1.0]
	},
	{
		"byteOffset":0,
		"type":"SCALAR",
		"bufferView":14,
		"componentType":5123,
		"count":12600,
		"min":[0],
		"max":[2617]
	},
	{
		"byteOffset":0,
		"type":"VEC3",
		"bufferView":15,
		"componentType":5126,
		"count":2618,
		"min":[31.652000427246095,
		68.07060241699219,
		-31.645299911499025],
		"max":[48.43510055541992,
		89.86139678955078,
		-8.844499588012696]
	},
	{
		"byteOffset":12,
		"type":"VEC3",
		"bufferView":15,
		"componentType":5126,
		"count":2618,
		"min":[-0.9987500309944153,
		-0.9977812767028809,
		-0.9980000257492065],
		"max":[0.9986875653266907,
		0.9950000643730164,
		0.9980625510215759]
	},
	{
		"byteOffset":24,
		"type":"VEC2",
		"bufferView":15,
		"componentType":5126,
		"count":2618,
		"min":[0.0,
		0.8356999158859253],
		"max":[0.2482999861240387,
		1.0]
	},
	{
		"byteOffset":0,
		"type":"SCALAR",
		"bufferView":16,
		"componentType":5123,
		"count":12600,
		"min":[0],
		"max":[2699]
	},
	{
		"byteOffset":0,
		"type":"VEC3",
		"bufferView":17,
		"componentType":5126,
		"count":2700,
		"min":[8.514300346374512,
		75.5072021484375,
		-41.812801361083987],
		"max":[23.04050064086914,
		96.25330352783203,
		-17.96470069885254]
	},
	{
		"byteOffset":12,
		"type":"VEC3",
		"bufferView":17,
		"componentType":5126,
		"count":2700,
		"min":[-0.9965937733650208,
		-0.9991875290870667,
		-0.9998750686645508],
		"max":[0.9965937733650208,
		0.9991875290870667,
		0.9998750686645508]
	},
	{
		"byteOffset":24,
		"type":"VEC2",
		"bufferView":17,
		"componentType":5126,
		"count":2700,
		"min":[0.0,
		0.8356999158859253],
		"max":[0.29659998416900637,
		1.0]
	},
	{
		"byteOffset":0,
		"type":"SCALAR",
		"bufferView":18,
		"componentType":5123,
		"count":12600,
		"min":[0],
		"max":[2617]
	},
	{
		"byteOffset":0,
		"type":"VEC3",
		"bufferView":19,
		"componentType":5126,
		"count":2618,
		"min":[-4.525400161743164,
		57.60319900512695,
		-25.380399703979493],
		"max":[10.669400215148926,
		80.71060180664063,
		-3.367799997329712]
	},
	{
		"byteOffset":12,
		"type":"VEC3",
		"bufferView":19,
		"componentType":5126,
		"count":2618,
		"min":[-0.9986875653266907,
		-0.9980000257492065,
		-0.9977812767028809],
		"max":[0.9987500309944153,
		0.9980625510215759,
		0.9950000643730164]
	},
	{
		"byteOffset":24,
		"type":"VEC2",
		"bufferView":19,
		"componentType":5126,
		"count":2618,
		"min":[0.0,
		0.8356999158859253],
		"max":[0.21209999918937684,
		1.0]
	}],
	"bufferViews":[{
		"buffer":0,
		"byteOffset":0,
		"byteLength":66216,
		"target":34963
	},
	{
		"buffer":0,
		"byteStride":32,
		"byteOffset":66216,
		"byteLength":184672,
		"target":34962
	},
	{
		"buffer":1,
		"byteOffset":0,
		"byteLength":34104,
		"target":34963
	},
	{
		"buffer":1,
		"byteStride":32,
		"byteOffset":34104,
		"byteLength":150400,
		"target":34962
	},
	{
		"buffer":2,
		"byteOffset":0,
		"byteLength":25200,
		"target":34963
	},
	{
		"buffer":2,
		"byteStride":32,
		"byteOffset":25200,
		"byteLength":83776,
		"target":34962
	},
	{
		"buffer":3,
		"byteOffset":0,
		"byteLength":25200,
		"target":34963
	},
	{
		"buffer":3,
		"byteStride":32,
		"byteOffset":25200,
		"byteLength":86400,
		"target":34962
	},
	{
		"buffer":4,
		"byteOffset":0,
		"byteLength":25200,
		"target":34963
	},
	{
		"buffer":4,
		"byteStride":32,
		"byteOffset":25200,
		"byteLength":83776,
		"target":34962
	},
	{
		"buffer":5,
		"byteOffset":0,
		"byteLength":25200,
		"target":34963
	},
	{
		"buffer":5,
		"byteStride":32,
		"byteOffset":25200,
		"byteLength":86400,
		"target":34962
	},
	{
		"buffer":6,
		"byteOffset":0,
		"byteLength":25200,
		"target":34963
	},
	{
		"buffer":6,
		"byteStride":32,
		"byteOffset":25200,
		"byteLength":86400,
		"target":34962
	},
	{
		"buffer":7,
		"byteOffset":0,
		"byteLength":25200,
		"target":34963
	},
	{
		"buffer":7,
		"byteStride":32,
		"byteOffset":25200,
		"byteLength":83776,
		"target":34962
	},
	{
		"buffer":8,
		"byteOffset":0,
		"byteLength":25200,
		"target":34963
	},
	{
		"buffer":8,
		"byteStride":32,
		"byteOffset":25200,
		"byteLength":86400,
		"target":34962
	},
	{
		"buffer":9,
		"byteOffset":0,
		"byteLength":25200,
		"target":34963
	},
	{
		"buffer":9,
		"byteStride":32,
		"byteOffset":25200,
		"byteLength":83776,
		"target":34962
	}],
	"materials":[{
		"pbrMetallicRoughness":{
			"baseColorFactor":[0.8,
			0.8,
			0.8,
			1.0],
			"metallicFactor":1.0,
			"roughnessFactor":0.56
		},
		"emissiveFactor":[0.0,
		0.0,
		0.0],
		"alphaMode":"OPAQUE",
		"doubleSided":false,
		"name":"PBR"
	}]
}